<?xml version="1.0" encoding="utf-8"?>
<!-- Generator: Adobe Illustrator 25.3.1, SVG Export Plug-In . SVG Version: 6.00 Build 0)  -->
<svg version="1.1" id="Layer_1" xmlns="http://www.w3.org/2000/svg" xmlns:xlink="http://www.w3.org/1999/xlink" x="0px" y="0px"
	 viewBox="0 0 2048 2048" style="enable-background:new 0 0 2048 2048;" xml:space="preserve">
<style type="text/css">
	.st0{fill:#7CD8BB;}
	.st1{fill:#FFB357;}
	.st2{fill:#FFC388;}
	.st3{fill:#FFFFFF;}
	.st4{fill:#E6E7E8;}
	.st5{fill:#231F20;}
	.st6{fill:#D34452;}
	.st7{font-family:'Montserrat-Bold';}
	.st8{font-size:50.8036px;}
	.st9{fill:#FDEFD5;}
	.st10{fill:#FFE0B3;}
</style>
<path class="st0" d="M1722.68,1548.74c147.88-153.21,169.18-358.59,172.28-488.84c5.08-213.16-19.21-437.76-140.88-612.86
	c-93.3-134.26-280.81-396.9-730.08-329.13c-117.37,17.71-225.88,115.37-274.35,222.82c-32.97,73.11-43.47,153.5-57.64,231.7
	c-4.68,25.84-12.36,53.28-12.4,79.59c-0.02,15.01,7.2,31.88,3.16,46.67c-10.34,37.86-75.89,68.18-107.14,86.63
	c-86.36,50.98-181.1,89.57-257.74,155.64c-110.4,95.18-171.23,243.02-166.91,388.72s71.69,287.15,177.19,387.74
	c41.3,39.38,88.85,73.19,142.45,92.78c62.68,22.91,130.9,25.53,197.57,22.87c64.93-2.59,130.1-10.03,192.19-29.2
	c141.76-43.78,264.78-147.54,412.5-161.32c63.31-5.91,127.04,5.4,190.57,3.02C1556.88,1642.07,1657.55,1616.22,1722.68,1548.74z"/>
<g>
	<g>
		<g>
			<polygon class="st1" points="1686.61,394.53 1660.57,420.57 1686.61,446.61 1660.57,472.65 1686.61,498.68 1660.57,524.72 
				1686.61,550.76 1660.57,576.8 1686.61,602.83 1660.57,628.87 1686.61,654.89 1660.57,680.92 1686.61,706.96 1660.57,733 
				1686.61,759.04 1660.57,785.07 1686.61,811.11 1660.57,837.15 1686.61,863.19 1660.57,889.22 1686.61,915.26 1660.57,941.3 
				1686.61,967.34 1685.68,968.24 362.32,968.24 361.41,967.34 387.45,941.3 361.41,915.26 387.45,889.22 361.41,863.19 
				387.45,837.15 361.41,811.11 387.45,785.07 361.41,759.04 387.45,733 361.41,706.96 387.45,680.92 361.41,654.89 387.45,628.87 
				361.41,602.83 387.45,576.8 361.41,550.76 387.45,524.72 361.41,498.68 387.45,472.65 361.41,446.61 387.45,420.57 
				361.41,394.53 387.45,368.5 361.39,342.44 1686.61,342.44 1660.57,368.5 			"/>
			<g>
				<polygon class="st2" points="436.42,426.37 429.97,489.24 473.22,474.76 				"/>
				<polygon class="st2" points="466,594.46 478.05,626.36 495.44,608.94 				"/>
				<polygon class="st2" points="631.1,446.76 595.63,426.37 592.78,455.76 				"/>
				<polygon class="st2" points="687.62,558.03 736.56,571.22 730.66,535.12 				"/>
				<polygon class="st2" points="781.22,357.97 720.56,369.83 746.42,406.18 				"/>
				<polygon class="st2" points="866.24,530.39 887.76,575.95 911.31,548.24 				"/>
				<polygon class="st2" points="945.23,382.07 958.34,426.37 983.56,404.56 				"/>
				<polygon class="st2" points="1017.18,547.98 1026.4,594.46 1054.21,574.56 				"/>
				<polygon class="st2" points="430.39,774.8 440.53,794.79 450.66,782.17 				"/>
				<polygon class="st2" points="552.39,837.91 570.58,879.92 592.78,855.45 				"/>
				<polygon class="st2" points="673.51,684.34 611.94,700.16 640.67,735.92 				"/>
				<polygon class="st2" points="690.79,903.48 713.99,943.5 733.39,916.33 				"/>
				<polygon class="st2" points="783.34,748.48 790.17,791.19 816.22,773.99 				"/>
				<polygon class="st2" points="952.24,905.34 888.77,892.52 899.24,938.07 				"/>
				<polygon class="st2" points="948.66,729.62 924.12,690.64 905.8,718.38 				"/>
				<polygon class="st2" points="1041.89,731.11 998.78,740.2 1017.59,765.84 				"/>
			</g>
			<polygon class="st3" points="1686.61,394.53 1660.57,420.57 1686.61,446.61 1660.57,472.65 1686.61,498.68 1660.57,524.72 
				1686.61,550.76 1660.57,576.8 1686.61,602.83 1660.57,628.87 1686.61,654.89 1660.57,680.92 1686.61,706.96 1660.57,733 
				1686.61,759.04 1660.57,785.07 1686.61,811.11 1660.57,837.15 1686.61,863.19 1660.57,889.22 1686.61,915.26 1660.57,941.3 
				1686.61,967.34 1685.68,968.24 1096.73,968.24 1096.73,342.44 1686.61,342.44 1660.57,368.5 			"/>
			<g>
				<g>
					<polygon class="st4" points="1124.54,430.97 1118.08,493.84 1161.34,479.37 					"/>
					<polygon class="st4" points="1154.12,599.06 1166.16,630.97 1183.55,613.55 					"/>
					<polygon class="st4" points="1319.22,451.36 1283.74,430.97 1280.9,460.36 					"/>
					<polygon class="st4" points="1375.74,562.64 1424.68,575.82 1418.77,539.72 					"/>
					<polygon class="st4" points="1469.34,362.57 1408.68,374.44 1434.54,410.78 					"/>
					<polygon class="st4" points="1554.35,534.99 1575.87,580.56 1599.42,552.84 					"/>
					<polygon class="st4" points="1633.35,386.68 1646.46,430.97 1671.67,409.16 					"/>
					<polygon class="st4" points="1118.5,779.41 1128.65,799.4 1138.77,786.78 					"/>
					<polygon class="st4" points="1240.5,842.51 1258.7,884.52 1280.9,860.05 					"/>
					<polygon class="st4" points="1361.63,688.94 1300.06,704.76 1328.79,740.53 					"/>
					<polygon class="st4" points="1378.9,908.08 1402.1,948.11 1421.51,920.94 					"/>
					<polygon class="st4" points="1471.46,753.08 1478.28,795.79 1504.33,778.59 					"/>
					<polygon class="st4" points="1640.36,909.95 1576.89,897.13 1587.36,942.67 					"/>
					<polygon class="st4" points="1636.78,734.22 1612.23,695.24 1593.91,722.99 					"/>
				</g>
			</g>
		</g>
		<g>
			<g>
				<path class="st3" d="M605.68,758.7c-3.35,5.65-8.32,10.18-14.89,13.59c-6.58,3.41-14.59,5.12-24.02,5.12
					c-9.31,0-17.63-1.58-24.95-4.75c-7.33-3.17-13.19-7.73-17.59-13.69c-4.41-5.96-6.92-12.91-7.54-20.85h27.93
					c0.62,5.34,2.76,9.78,6.42,13.31c3.66,3.54,8.53,5.31,14.62,5.31c5.46,0,9.65-1.46,12.57-4.38c2.92-2.91,4.38-6.67,4.38-11.26
					c0-4.1-1.18-7.48-3.54-10.15c-2.36-2.67-5.34-4.81-8.94-6.42c-3.6-1.61-8.56-3.47-14.89-5.59c-8.19-2.73-14.9-5.43-20.11-8.1
					c-5.21-2.67-9.65-6.55-13.31-11.64c-3.66-5.09-5.49-11.73-5.49-19.92c0-11.29,4.06-20.2,12.19-26.72
					c8.13-6.52,18.9-9.77,32.3-9.77c13.9,0,24.98,3.35,33.23,10.05c8.25,6.7,12.94,15.64,14.06,26.81h-28.3
					c-0.75-4.71-2.73-8.59-5.96-11.64c-3.23-3.04-7.63-4.56-13.22-4.56c-4.84,0-8.75,1.27-11.73,3.82
					c-2.98,2.55-4.47,6.24-4.47,11.08c0,3.85,1.15,7.05,3.44,9.59c2.3,2.55,5.21,4.63,8.75,6.24c3.54,1.61,8.35,3.42,14.43,5.4
					c8.44,2.98,15.3,5.77,20.57,8.38c5.27,2.61,9.78,6.52,13.5,11.73c3.72,5.21,5.59,12.04,5.59,20.48
					C610.71,746.88,609.03,753.05,605.68,758.7z"/>
				<path class="st3" d="M710.13,749.67h-52.69l-9.31,26.44h-27.74l48.41-129.95h29.97l48.22,129.95h-27.74L710.13,749.67z
					 M703.05,729.75l-19.36-55.48l-19.36,55.48H703.05z"/>
				<path class="st3" d="M787.39,756h44.13v20.11h-70.38V644.66h26.25V756z"/>
				<path class="st3" d="M873.4,665.52v34.07h46.55v20.11H873.4v35.37h52.13v21.04h-78.38V644.66h78.38v20.85H873.4z"/>
			</g>
			<g>
				<path class="st5" d="M612.85,557.9c4.78,5.9,7.17,12.82,7.17,20.76c0,11.05-3.7,19.77-11.08,26.16
					c-7.39,6.39-18.09,9.59-32.12,9.59h-56.41V482.96h55.3c13.28,0,23.49,2.92,30.63,8.75c7.14,5.84,10.71,14.03,10.71,24.58
					c0,8.19-2.14,14.89-6.42,20.11c-4.28,5.21-9.9,8.63-16.85,10.24C601.71,548.25,608.07,552.01,612.85,557.9z M546.66,538.07
					h23.65c6.58,0,11.57-1.46,14.99-4.38c3.41-2.92,5.12-7.1,5.12-12.57c0-5.46-1.68-9.68-5.03-12.66
					c-3.35-2.98-8.5-4.47-15.45-4.47h-23.27V538.07z M587.62,588.43c3.72-3.04,5.59-7.48,5.59-13.31c0-5.83-1.89-10.33-5.68-13.5
					c-3.79-3.16-9.15-4.75-16.1-4.75h-24.76V593h24.95C578.56,593,583.9,591.48,587.62,588.43z"/>
				<path class="st5" d="M664.7,482.96v131.44h-26.25V482.96H664.7z"/>
				<path class="st5" d="M789.25,493.48c10.55,7.88,17.31,18.52,20.29,31.93h-27.56c-2.61-5.96-6.73-10.7-12.38-14.24
					c-5.65-3.54-12.32-5.31-20.01-5.31c-7.57,0-14.28,1.74-20.11,5.21c-5.83,3.48-10.36,8.44-13.59,14.89
					c-3.23,6.46-4.84,14.03-4.84,22.71c0,13.78,3.69,24.51,11.08,32.21c7.38,7.7,17.47,11.54,30.25,11.54
					c9.43,0,17.53-2.79,24.3-8.38c6.76-5.59,11.14-13.34,13.13-23.27h-44.5v-18.8h66.47v25.32c-1.86,8.69-5.49,16.7-10.89,24.02
					c-5.4,7.33-12.47,13.19-21.22,17.59c-8.75,4.41-18.78,6.61-30.07,6.61c-12.91,0-24.3-2.82-34.16-8.47
					c-9.87-5.65-17.5-13.53-22.9-23.64c-5.4-10.12-8.1-21.69-8.1-34.72c0-13.03,2.7-24.61,8.1-34.72c5.4-10.12,13-18.03,22.81-23.74
					c9.8-5.71,21.16-8.56,34.07-8.56C765.42,481.66,778.7,485.6,789.25,493.48z"/>
			</g>
		</g>
		<g>
			<g>
				<path class="st6" d="M1469.74,706.67c3.69,2.11,6.59,5.05,8.72,8.83c2.13,3.78,3.19,8.05,3.19,12.81
					c0,4.76-1.06,9.04-3.19,12.84c-2.13,3.8-5.04,6.76-8.72,8.86c-3.69,2.11-7.8,3.16-12.33,3.16c-4.53,0-8.64-1.05-12.33-3.16
					c-3.69-2.11-6.59-5.06-8.72-8.86c-2.13-3.8-3.19-8.08-3.19-12.84c0-4.76,1.06-9.03,3.19-12.81c2.13-3.78,5.04-6.72,8.72-8.83
					c3.69-2.11,7.8-3.16,12.33-3.16C1461.95,703.51,1466.06,704.56,1469.74,706.67z M1449.93,714.36c-2.15,1.28-3.84,3.13-5.05,5.53
					c-1.21,2.4-1.82,5.21-1.82,8.41c0,3.21,0.61,6.01,1.82,8.41c1.21,2.4,2.9,4.25,5.05,5.53c2.15,1.28,4.65,1.92,7.49,1.92
					c2.84,0,5.33-0.64,7.49-1.92c2.15-1.28,3.83-3.13,5.05-5.53c1.21-2.4,1.82-5.21,1.82-8.41c0-3.21-0.61-6.01-1.82-8.41
					c-1.21-2.4-2.9-4.25-5.05-5.53c-2.15-1.28-4.65-1.92-7.49-1.92C1454.57,712.44,1452.08,713.08,1449.93,714.36z"/>
				<path class="st6" d="M1525.89,704.2v7.69h-20.4v12.98h16.35v7.42h-16.35v20.4h-9.68V704.2H1525.89z"/>
				<path class="st6" d="M1569.37,704.2v7.69h-20.4v12.98h16.35v7.42h-16.35v20.4h-9.68V704.2H1569.37z"/>
			</g>
			<g>
				<g>
					<path class="st5" d="M1244.29,752.45c-11.72,0-21.03-2.25-27.93-6.74c-6.9-4.49-11.84-10.99-14.81-19.51
						c-2.97-8.51-4.46-18.62-4.46-30.34h25.77c0,5.78,0.48,11.44,1.44,16.98c0.96,5.54,3.01,10.11,6.14,13.72
						c3.13,3.61,7.9,5.42,14.33,5.42c7.06,0,12.12-2.05,15.17-6.14c3.05-4.09,4.97-9.63,5.78-16.62c0.8-6.98,1.2-14.89,1.2-23.72
						c0-8.83-0.48-16.33-1.44-22.51c-0.96-6.18-2.97-10.91-6.02-14.21c-3.05-3.29-7.87-4.94-14.45-4.94c-5.3,0-9.79,1.65-13.48,4.94
						c-3.69,3.29-6.42,7.02-8.19,11.2h-21.91v-104.5h84.04v25.77h-60.68l-1.69,53.94c3.21-3.37,7.18-6.02,11.92-7.95
						c4.73-1.93,10.15-2.89,16.25-2.89c10.59,0,18.9,2.49,24.92,7.46c6.02,4.98,10.27,11.8,12.76,20.47
						c2.49,8.67,3.73,18.62,3.73,29.86c0,9.96-0.72,19.22-2.17,27.81c-1.44,8.59-3.97,16.05-7.59,22.39
						c-3.61,6.34-8.55,11.28-14.81,14.81C1261.87,750.68,1253.93,752.45,1244.29,752.45z"/>
					<path class="st5" d="M1355.95,752.69c-11.08,0-20.19-2.49-27.33-7.47c-7.14-4.97-12.44-11.8-15.89-20.47
						c-3.45-8.67-5.18-18.54-5.18-29.62V611.1c0-11.4,1.69-21.39,5.06-29.98c3.37-8.59,8.63-15.29,15.77-20.11
						c7.14-4.82,16.33-7.22,27.57-7.22c11.24,0,20.38,2.41,27.45,7.22c7.06,4.82,12.28,11.52,15.65,20.11
						c3.37,8.59,5.06,18.58,5.06,29.98v84.04c0,11.24-1.73,21.19-5.18,29.86c-3.45,8.67-8.71,15.45-15.77,20.35
						C1376.1,750.24,1367.03,752.69,1355.95,752.69z M1355.95,731.5c6.1,0,10.72-1.77,13.85-5.3c3.13-3.53,5.3-8.07,6.5-13.6
						c1.2-5.54,1.81-11.28,1.81-17.22v-84.52c0-6.26-0.56-12.16-1.69-17.7c-1.13-5.54-3.25-9.99-6.38-13.36
						c-3.13-3.37-7.83-5.06-14.09-5.06c-6.26,0-11,1.69-14.21,5.06c-3.21,3.37-5.38,7.83-6.5,13.36c-1.13,5.54-1.69,11.44-1.69,17.7
						v84.52c0,5.94,0.6,11.68,1.81,17.22c1.2,5.54,3.45,10.08,6.74,13.6C1345.39,729.73,1350.01,731.5,1355.95,731.5z"/>
				</g>
			</g>
			<path class="st5" d="M1456.94,622.14c-9.4,0-16.19-2.66-20.38-7.97c-4.19-5.31-6.28-12.44-6.28-21.4v-9.84
				c0-9.27,2.04-16.4,6.11-21.4c4.08-5,10.92-7.5,20.55-7.5c9.62,0,16.47,2.4,20.55,7.19c4.08,4.79,6.11,11.77,6.11,20.93v11.09
				c0,9.06-2.07,16.14-6.2,21.24C1473.27,619.59,1466.45,622.14,1456.94,622.14z M1456.94,609.48c2.94,0,5.12-0.75,6.54-2.27
				c1.41-1.51,2.38-3.51,2.89-6.01c0.51-2.5,0.76-5.15,0.76-7.97v-11.09c0-4.27-0.59-7.91-1.78-10.93
				c-1.19-3.02-3.99-4.53-8.41-4.53s-7.19,1.54-8.32,4.61c-1.13,3.07-1.7,6.74-1.7,11.01v11.09c0,2.81,0.25,5.44,0.76,7.89
				c0.51,2.45,1.47,4.43,2.89,5.94C1451.99,608.73,1454.11,609.48,1456.94,609.48z M1473.25,681.49l37.87-126.68h15.62l-37.7,126.68
				H1473.25z M1542.71,682.27c-9.4,0-16.16-2.63-20.29-7.89c-4.13-5.26-6.2-12.42-6.2-21.48v-9.84c0-9.16,2.01-16.27,6.03-21.32
				c4.02-5.05,10.84-7.58,20.47-7.58c9.74,0,16.61,2.42,20.63,7.26c4.02,4.84,6.03,11.85,6.03,21.01v10.93
				c0,9.16-2.07,16.27-6.2,21.32C1559.04,679.75,1552.22,682.27,1542.71,682.27z M1542.71,669.62c2.94,0,5.15-0.75,6.62-2.27
				c1.47-1.51,2.43-3.51,2.89-6.01c0.45-2.5,0.68-5.1,0.68-7.81v-11.25c0-4.27-0.59-7.91-1.78-10.93c-1.19-3.02-3.99-4.53-8.41-4.53
				c-4.42,0-7.19,1.54-8.32,4.61c-1.13,3.07-1.7,6.74-1.7,11.01v11.09c0,2.81,0.25,5.44,0.76,7.89c0.51,2.45,1.47,4.43,2.89,5.94
				C1537.75,668.87,1539.88,669.62,1542.71,669.62z"/>
		</g>
		<g>
			<g>
				<path class="st5" d="M556.19,865.93v33.36h-5.1l-18.4-22.59v22.59h-6.15v-33.36h5.1l18.4,22.59v-22.59H556.19z"/>
				<path class="st5" d="M572.5,897.56c-2.73-1.48-4.88-3.53-6.43-6.15c-1.56-2.62-2.34-5.55-2.34-8.79c0-3.24,0.78-6.17,2.34-8.79
					c1.56-2.62,3.7-4.67,6.43-6.15c2.73-1.48,5.8-2.22,9.2-2.22c3.4,0,6.47,0.74,9.2,2.22c2.73,1.48,4.88,3.52,6.43,6.13
					c1.56,2.61,2.34,5.54,2.34,8.82s-0.78,6.21-2.34,8.82c-1.56,2.61-3.7,4.65-6.43,6.13c-2.73,1.48-5.8,2.22-9.2,2.22
					C578.29,899.77,575.23,899.03,572.5,897.56z M587.7,892.84c1.78-1,3.18-2.4,4.19-4.19c1.02-1.8,1.52-3.81,1.52-6.03
					c0-2.22-0.51-4.23-1.52-6.03c-1.02-1.79-2.42-3.19-4.19-4.19c-1.78-1-3.78-1.5-6.01-1.5c-2.22,0-4.23,0.5-6.01,1.5
					c-1.78,1-3.18,2.4-4.19,4.19c-1.02,1.8-1.53,3.81-1.53,6.03c0,2.22,0.51,4.23,1.53,6.03c1.02,1.79,2.41,3.19,4.19,4.19
					c1.78,1,3.78,1.5,6.01,1.5C583.92,894.34,585.92,893.84,587.7,892.84z"/>
				<path class="st5" d="M605.77,880.35c-0.76-0.75-1.14-1.69-1.14-2.84c0-1.17,0.37-2.13,1.12-2.86c0.75-0.73,1.68-1.1,2.79-1.1
					s2.04,0.37,2.79,1.1c0.75,0.73,1.12,1.69,1.12,2.86c0,1.15-0.38,2.09-1.14,2.84c-0.76,0.75-1.68,1.12-2.76,1.12
					S606.53,881.1,605.77,880.35z M605.77,898.51c-0.76-0.75-1.14-1.69-1.14-2.84c0-1.18,0.37-2.13,1.12-2.86
					c0.75-0.73,1.68-1.1,2.79-1.1s2.04,0.37,2.79,1.1c0.75,0.73,1.12,1.68,1.12,2.86c0,1.14-0.38,2.09-1.14,2.84
					c-0.76,0.75-1.68,1.12-2.76,1.12S606.53,899.26,605.77,898.51z"/>
				<path class="st5" d="M643.04,865.93v33.36h-6.2v-28.17h-7.05v-5.2H643.04z"/>
				<path class="st5" d="M674.78,894.05v5.24h-24.6v-4.15l13.25-12.58c1.49-1.43,2.5-2.68,3.03-3.74c0.52-1.06,0.79-2.12,0.79-3.17
					c0-1.56-0.52-2.75-1.57-3.57c-1.05-0.83-2.59-1.24-4.62-1.24c-3.4,0-6.01,1.16-7.82,3.48l-4.34-3.33
					c1.3-1.75,3.06-3.11,5.27-4.08c2.21-0.97,4.68-1.46,7.41-1.46c3.62,0,6.51,0.86,8.68,2.58c2.16,1.71,3.24,4.05,3.24,7.01
					c0,1.81-0.38,3.51-1.14,5.1c-0.76,1.59-2.22,3.4-4.39,5.43l-8.91,8.48H674.78z"/>
				<path class="st5" d="M700.57,882.85c1.62,1.72,2.43,3.86,2.43,6.43c0,1.94-0.49,3.7-1.48,5.29c-0.99,1.59-2.47,2.85-4.46,3.79
					c-1.99,0.94-4.41,1.41-7.27,1.41c-2.38,0-4.68-0.34-6.89-1.03c-2.21-0.68-4.09-1.63-5.65-2.84l2.67-4.81
					c1.21,1.02,2.68,1.82,4.41,2.41c1.73,0.59,3.52,0.88,5.36,0.88c2.19,0,3.92-0.45,5.17-1.36c1.25-0.91,1.88-2.13,1.88-3.69
					s-0.6-2.77-1.79-3.65c-1.19-0.88-3.01-1.31-5.46-1.31h-3.05v-4.24l7.58-9.01h-15.16v-5.2h22.74v4.15l-8.1,9.63
					C696.6,880.09,698.95,881.14,700.57,882.85z"/>
				<path class="st5" d="M737.75,891.72h-5.91v7.58h-6.01v-7.58h-18.3v-4.29l16.44-21.5h6.63l-15.49,20.54h10.91v-6.72h5.82v6.72
					h5.91V891.72z"/>
				<path class="st5" d="M742.32,883.57h13.11v4.96h-13.11V883.57z"/>
				<path class="st5" d="M781.98,881.59c2.26,1.83,3.38,4.32,3.38,7.46c0,2-0.49,3.81-1.48,5.43c-0.99,1.62-2.46,2.9-4.43,3.86
					c-1.97,0.95-4.4,1.43-7.29,1.43c-2.38,0-4.69-0.34-6.91-1.03c-2.22-0.68-4.1-1.63-5.62-2.84l2.62-4.81
					c1.24,1.02,2.72,1.82,4.46,2.41c1.73,0.59,3.52,0.88,5.36,0.88c2.19,0,3.92-0.45,5.17-1.36c1.26-0.91,1.88-2.15,1.88-3.74
					c0-1.72-0.68-3.01-2.03-3.88c-1.35-0.88-3.66-1.31-6.93-1.31h-8.06l1.72-18.16h19.59v5.2h-14.35l-0.71,7.72h3.19
					C776.24,878.85,779.72,879.76,781.98,881.59z"/>
				<path class="st5" d="M810.96,879.97c1.75,0.84,3.11,2.04,4.1,3.6c0.98,1.56,1.48,3.35,1.48,5.38c0,2.16-0.54,4.06-1.62,5.7
					c-1.08,1.64-2.54,2.9-4.39,3.79s-3.91,1.33-6.2,1.33c-4.58,0-8.13-1.43-10.65-4.29c-2.53-2.86-3.79-6.96-3.79-12.3
					c0-3.75,0.68-6.95,2.05-9.6c1.37-2.65,3.28-4.67,5.74-6.05c2.46-1.38,5.31-2.08,8.56-2.08c1.72,0,3.33,0.19,4.84,0.55
					c1.51,0.37,2.82,0.9,3.93,1.6l-2.29,4.67c-1.65-1.08-3.77-1.62-6.34-1.62c-3.21,0-5.72,0.99-7.53,2.96
					c-1.81,1.97-2.72,4.81-2.72,8.53v0.05c0.98-1.14,2.24-2.01,3.77-2.6c1.52-0.59,3.24-0.88,5.15-0.88
					C807.24,878.7,809.21,879.13,810.96,879.97z M808.72,893.36c1.21-1.03,1.81-2.41,1.81-4.12c0-1.75-0.6-3.13-1.81-4.15
					c-1.21-1.01-2.83-1.52-4.86-1.52c-2,0-3.63,0.54-4.89,1.62c-1.26,1.08-1.88,2.45-1.88,4.1c0,1.62,0.61,2.96,1.83,4.03
					c1.22,1.07,2.92,1.6,5.08,1.6C805.94,894.91,807.51,894.39,808.72,893.36z"/>
				<path class="st5" d="M845.66,865.93v4.15l-12.97,29.22h-6.63l12.54-28.12H825.5v5.67h-5.77v-10.91H845.66z"/>
			</g>
		</g>
		<text transform="matrix(1 0 0 1 1254.5293 486.0947)" class="st1 st7 st8">COUPON</text>
		<g>
			<g>
				<path class="st5" d="M1203.34,823.31c-1.57-0.85-2.8-2.02-3.69-3.53c-0.89-1.51-1.34-3.19-1.34-5.05c0-1.86,0.45-3.54,1.34-5.05
					c0.89-1.51,2.13-2.68,3.69-3.53s3.33-1.27,5.28-1.27c1.95,0,3.71,0.42,5.28,1.27s2.8,2.02,3.69,3.52
					c0.89,1.5,1.34,3.18,1.34,5.06c0,1.88-0.45,3.57-1.34,5.06c-0.89,1.49-2.12,2.67-3.69,3.52s-3.33,1.27-5.28,1.27
					C1206.66,824.58,1204.9,824.16,1203.34,823.31z M1212.06,820.6c1.02-0.57,1.82-1.38,2.41-2.41c0.58-1.03,0.88-2.18,0.88-3.46
					c0-1.28-0.29-2.43-0.88-3.46c-0.58-1.03-1.39-1.83-2.41-2.41c-1.02-0.57-2.17-0.86-3.45-0.86c-1.28,0-2.43,0.29-3.45,0.86
					c-1.02,0.57-1.82,1.38-2.41,2.41c-0.58,1.03-0.87,2.18-0.87,3.46c0,1.28,0.29,2.43,0.87,3.46c0.58,1.03,1.39,1.83,2.41,2.41
					c1.02,0.57,2.17,0.86,3.45,0.86C1209.89,821.46,1211.04,821.18,1212.06,820.6z"/>
				<path class="st5" d="M1244.1,805.16v19.15h-2.93l-10.56-12.97v12.97h-3.53v-19.15h2.93l10.56,12.97v-12.97H1244.1z"/>
				<path class="st5" d="M1267.2,823.95c-1.38-0.42-2.47-0.97-3.27-1.67l1.23-2.76c0.78,0.62,1.75,1.13,2.89,1.52
					c1.14,0.39,2.28,0.59,3.43,0.59c1.42,0,2.48-0.23,3.19-0.68c0.7-0.45,1.05-1.06,1.05-1.8c0-0.55-0.2-1-0.59-1.36
					c-0.39-0.36-0.89-0.63-1.49-0.83c-0.6-0.2-1.42-0.43-2.46-0.68c-1.46-0.35-2.64-0.69-3.54-1.04c-0.9-0.35-1.68-0.89-2.33-1.63
					s-0.97-1.74-0.97-3c0-1.06,0.29-2.02,0.86-2.89c0.57-0.87,1.44-1.56,2.6-2.06c1.16-0.51,2.58-0.77,4.25-0.77
					c1.17,0,2.32,0.15,3.45,0.44c1.13,0.29,2.11,0.71,2.93,1.26l-1.12,2.76c-0.84-0.49-1.71-0.87-2.63-1.12
					c-0.91-0.25-1.8-0.38-2.65-0.38c-1.4,0-2.45,0.24-3.13,0.71c-0.68,0.48-1.03,1.11-1.03,1.89c0,0.55,0.2,0.99,0.59,1.34
					c0.39,0.35,0.89,0.62,1.49,0.82c0.6,0.2,1.42,0.43,2.46,0.68c1.42,0.33,2.59,0.67,3.5,1.03c0.91,0.36,1.69,0.9,2.34,1.63
					c0.65,0.73,0.97,1.72,0.97,2.96c0,1.06-0.29,2.01-0.86,2.87c-0.57,0.86-1.45,1.54-2.61,2.05c-1.17,0.51-2.59,0.77-4.27,0.77
					C1270,824.58,1268.57,824.37,1267.2,823.95z"/>
				<path class="st5" d="M1301.49,821.33v2.98h-14.36v-19.15h13.98v2.98h-10.42v4.98h9.25v2.93h-9.25v5.28H1301.49z"/>
				<path class="st5" d="M1309.83,805.16h3.56v16.14h10.01v3.01h-13.57V805.16z"/>
				<path class="st5" d="M1344.95,821.33v2.98h-14.36v-19.15h13.98v2.98h-10.42v4.98h9.25v2.93h-9.25v5.28H1344.95z"/>
				<path class="st5" d="M1356.84,823.31c-1.56-0.85-2.78-2.02-3.67-3.52c-0.88-1.5-1.33-3.18-1.33-5.06c0-1.88,0.45-3.56,1.34-5.06
					c0.89-1.49,2.12-2.67,3.68-3.52c1.56-0.85,3.31-1.27,5.24-1.27c1.57,0,3,0.27,4.29,0.82c1.3,0.55,2.39,1.34,3.28,2.38l-2.3,2.16
					c-1.39-1.49-3.09-2.24-5.11-2.24c-1.31,0-2.49,0.29-3.53,0.86c-1.04,0.57-1.85,1.37-2.44,2.39c-0.58,1.02-0.87,2.18-0.87,3.47
					c0,1.3,0.29,2.45,0.87,3.48c0.58,1.02,1.4,1.82,2.44,2.39c1.04,0.57,2.22,0.86,3.53,0.86c2.02,0,3.73-0.76,5.11-2.27l2.3,2.19
					c-0.89,1.04-1.99,1.83-3.3,2.38c-1.3,0.55-2.74,0.82-4.31,0.82C1360.15,824.58,1358.4,824.16,1356.84,823.31z"/>
				<path class="st5" d="M1381.15,808.17h-6.35v-3.01h16.25v3.01h-6.35v16.14h-3.56V808.17z"/>
				<path class="st5" d="M1412.47,821.33v2.98h-14.36v-19.15h13.98v2.98h-10.42v4.98h9.25v2.93h-9.25v5.28H1412.47z"/>
				<path class="st5" d="M1420.81,805.16h8.37c2.04,0,3.86,0.4,5.44,1.19c1.59,0.79,2.82,1.92,3.69,3.37
					c0.88,1.45,1.31,3.12,1.31,5.02c0,1.9-0.44,3.57-1.31,5.02c-0.88,1.45-2.11,2.57-3.69,3.37c-1.59,0.79-3.4,1.19-5.44,1.19h-8.37
					V805.16z M1429.02,821.3c1.4,0,2.64-0.27,3.71-0.81c1.07-0.54,1.89-1.3,2.46-2.3c0.57-0.99,0.86-2.15,0.86-3.46
					c0-1.31-0.29-2.46-0.86-3.46c-0.57-0.99-1.39-1.76-2.46-2.3c-1.07-0.54-2.3-0.81-3.71-0.81h-4.65v13.13H1429.02z"/>
				<path class="st5" d="M1459.71,805.16h3.56v19.15h-3.56V805.16z"/>
				<path class="st5" d="M1476.7,808.17h-6.35v-3.01h16.25v3.01h-6.35v16.14h-3.56V808.17z"/>
				<path class="st5" d="M1508.02,821.33v2.98h-14.36v-19.15h13.98v2.98h-10.42v4.98h9.25v2.93h-9.25v5.28H1508.02z"/>
				<path class="st5" d="M1533.95,824.31l-0.03-12.69l-6.29,10.5h-1.59l-6.29-10.34v12.53h-3.39v-19.15h2.93l7.6,12.69l7.47-12.69
					h2.93l0.03,19.15H1533.95z"/>
				<path class="st5" d="M1548.52,823.95c-1.38-0.42-2.47-0.97-3.27-1.67l1.23-2.76c0.78,0.62,1.75,1.13,2.89,1.52
					c1.14,0.39,2.28,0.59,3.43,0.59c1.42,0,2.48-0.23,3.19-0.68c0.7-0.45,1.05-1.06,1.05-1.8c0-0.55-0.2-1-0.59-1.36
					c-0.39-0.36-0.89-0.63-1.49-0.83c-0.6-0.2-1.42-0.43-2.46-0.68c-1.46-0.35-2.64-0.69-3.54-1.04c-0.9-0.35-1.68-0.89-2.33-1.63
					c-0.65-0.74-0.97-1.74-0.97-3c0-1.06,0.29-2.02,0.86-2.89c0.57-0.87,1.44-1.56,2.6-2.06c1.16-0.51,2.58-0.77,4.25-0.77
					c1.17,0,2.32,0.15,3.45,0.44c1.13,0.29,2.11,0.71,2.93,1.26l-1.12,2.76c-0.84-0.49-1.71-0.87-2.63-1.12
					c-0.91-0.25-1.8-0.38-2.65-0.38c-1.4,0-2.45,0.24-3.13,0.71c-0.68,0.48-1.03,1.11-1.03,1.89c0,0.55,0.2,0.99,0.59,1.34
					c0.39,0.35,0.89,0.62,1.49,0.82c0.6,0.2,1.42,0.43,2.46,0.68c1.42,0.33,2.59,0.67,3.5,1.03c0.91,0.36,1.69,0.9,2.34,1.63
					c0.65,0.73,0.97,1.72,0.97,2.96c0,1.06-0.29,2.01-0.86,2.87c-0.57,0.86-1.45,1.54-2.61,2.05c-1.17,0.51-2.59,0.77-4.27,0.77
					C1551.32,824.58,1549.89,824.37,1548.52,823.95z"/>
			</g>
		</g>
		<g>
			<path class="st5" d="M1601.65,942.06H446.35c-21.37,0-38.76-17.39-38.76-38.76V407.38c0-21.37,17.39-38.76,38.76-38.76h1155.3
				c21.37,0,38.76,17.39,38.76,38.76V903.3C1640.41,924.67,1623.02,942.06,1601.65,942.06z M446.35,370.78
				c-20.18,0-36.6,16.42-36.6,36.6V903.3c0,20.18,16.42,36.6,36.6,36.6h1155.3c20.18,0,36.6-16.42,36.6-36.6V407.38
				c0-20.18-16.42-36.6-36.6-36.6H446.35z"/>
		</g>
	</g>
	<g>
		<g>
			<polygon class="st9" points="1686.61,1079.76 1686.61,1116.29 1649.84,1116.29 1649.84,1153.07 1686.61,1153.07 1686.61,1189.84 
				1649.84,1189.84 1649.84,1226.61 1686.61,1226.61 1686.61,1263.38 1649.84,1263.38 1649.84,1300.15 1686.61,1300.15 
				1686.61,1336.92 1649.84,1336.92 1649.84,1373.69 1686.61,1373.69 1686.61,1410.47 1649.84,1410.47 1649.84,1447.24 
				1686.61,1447.24 1686.61,1484.01 1649.84,1484.01 1649.84,1520.76 1686.61,1520.76 1686.61,1557.53 1649.84,1557.53 
				1649.84,1594.3 1686.61,1594.3 1686.61,1631.07 1649.84,1631.07 1649.84,1667.84 1686.61,1667.84 1686.61,1705.56 
				361.39,1705.56 361.39,1667.84 398.16,1667.84 398.16,1631.07 361.39,1631.07 361.39,1594.3 398.16,1594.3 398.16,1557.53 
				361.39,1557.53 361.39,1520.76 398.16,1520.76 398.16,1484.01 361.39,1484.01 361.39,1447.24 398.16,1447.24 398.16,1410.47 
				361.39,1410.47 361.39,1373.69 398.16,1373.69 398.16,1336.92 361.39,1336.92 361.39,1300.15 398.16,1300.15 398.16,1263.38 
				361.39,1263.38 361.39,1226.61 398.16,1226.61 398.16,1189.84 361.39,1189.84 361.39,1153.07 398.16,1153.07 398.16,1116.29 
				361.39,1116.29 361.39,1079.76 			"/>
		</g>
		<g>
			<path class="st10" d="M1016.73,1705.56H361.39v-37.72h36.77v-36.77h-36.77v-36.77h36.77v-36.77h-36.77v-36.77h36.77v-36.75
				h-36.77v-36.77h36.77v-36.77h-36.77v-36.77h36.77v-14.01c5.41-0.47,10.84-0.71,16.3-0.71c62.77,0.09,124.63,32.72,160.15,84.49
				c17.83,25.99,29.05,55.83,43.54,83.82c14.48,28,33.41,55.27,61.17,70.18c44.32,23.77,98.44,10.65,147.11-1.9
				c48.69-12.57,104.21-22.98,146.16,4.76C1006.01,1622.45,1021.77,1665.73,1016.73,1705.56z"/>
			<path class="st10" d="M1649.84,1116.29v36.77h36.77v36.77h-36.77v36.77h36.77v36.77h-36.77v36.77h36.77v36.77h-36.77v36.77h36.77
				v36.77h-36.77v36.77h36.77v36.77h-36.77v36.75h36.77v36.77h-36.77v36.77h36.77v36.77h-36.77v36.77h36.77v37.72h-409.46
				c-12.11-18.92-20.65-40-24.33-62.27c-8.92-54.12,10.37-109.47,38.82-156.38c17.93-29.55,40.37-64.77,25.02-95.74
				c-6.4-12.95-18.52-22.11-31.02-29.38c-33.17-19.29-71.17-28.26-106.91-42.27c-35.72-14.01-71.3-35.18-88.5-69.49
				c-13.67-27.29-13.84-59.92-5.6-89.3c8.6-30.65,25.58-57.77,47.42-80.98h553.34c0.41,0.34,0.82,0.69,1.23,1.03v35.5H1649.84z"/>
			<path class="st10" d="M936.78,1079.76c-7.2,21.34-20.3,41.04-36.02,57.4c-19.74,20.54-43.86,36.88-70.27,47.64
				c-17.74,7.2-36.92,11.94-55.98,10.11c-19.05-1.83-38-10.95-48.65-26.86c-6.14-9.14-9.25-19.89-12.46-30.43
				c-6.1-19.94-13.06-39.96-23.56-57.85H936.78z"/>
		</g>
		<g>
			<polygon class="st6" points="1649.84,1116.29 1649.84,1153.07 1686.61,1153.07 1686.61,1189.84 1649.84,1189.84 1649.84,1226.61 
				1686.61,1226.61 1686.61,1263.38 1649.84,1263.38 1649.84,1300.15 1686.61,1300.15 1686.61,1336.92 1649.84,1336.92 
				1649.84,1373.69 1686.61,1373.69 1686.61,1410.47 1649.84,1410.47 1649.84,1447.24 1686.61,1447.24 1686.61,1484.01 
				1649.84,1484.01 1649.84,1520.76 1686.61,1520.76 1686.61,1557.53 1649.84,1557.53 1649.84,1594.3 1686.61,1594.3 
				1686.61,1631.07 1649.84,1631.07 1649.84,1667.84 1686.61,1667.84 1686.61,1705.56 1403.56,1705.56 1403.56,1079.76 
				1686.61,1079.76 1686.61,1116.29 			"/>
		</g>
		<g>
			<path class="st9" d="M1510.49,1419.2c-1.52,2.83-3.63,5.05-6.33,6.67c-2.7,1.62-5.75,2.43-9.15,2.43c-3.4,0-6.45-0.81-9.15-2.43
				c-2.7-1.62-4.81-3.84-6.33-6.67s-2.28-6.01-2.28-9.54c0-2.98,0.52-5.67,1.57-8.07c1.05-2.4,2.55-4.42,4.51-6.06l4.71,5.1
				c-2.68,2.32-4.02,5.2-4.02,8.63c0,2.13,0.47,4.02,1.4,5.69c0.93,1.67,2.23,2.97,3.9,3.9c1.67,0.93,3.57,1.4,5.69,1.4
				c2.13,0,4.02-0.47,5.69-1.4c1.67-0.93,2.97-2.23,3.9-3.9c0.93-1.67,1.4-3.56,1.4-5.69c0-3.44-1.36-6.31-4.07-8.63l4.71-5.1
				c2,1.64,3.52,3.66,4.56,6.08s1.57,5.12,1.57,8.09C1512.77,1413.21,1512.01,1416.37,1510.49,1419.2z"/>
			<path class="st9" d="M1510.47,1378.04c-1.54,2.86-3.66,5.1-6.35,6.72c-2.7,1.62-5.73,2.43-9.1,2.43c-3.37,0-6.4-0.81-9.1-2.43
				c-2.7-1.62-4.82-3.86-6.35-6.72c-1.54-2.86-2.31-6.07-2.31-9.64c0-3.56,0.77-6.77,2.31-9.62c1.54-2.84,3.65-5.08,6.35-6.72
				c2.7-1.64,5.73-2.45,9.1-2.45c3.37,0,6.4,0.82,9.1,2.45c2.7,1.64,4.81,3.88,6.35,6.72c1.54,2.85,2.3,6.05,2.3,9.62
				C1512.77,1371.97,1512.01,1375.18,1510.47,1378.04z M1504.61,1362.91c-0.93-1.64-2.23-2.92-3.9-3.85
				c-1.67-0.93-3.56-1.4-5.69-1.4c-2.12,0-4.02,0.47-5.69,1.4c-1.67,0.93-2.97,2.21-3.9,3.85s-1.4,3.47-1.4,5.49
				c0,2.03,0.47,3.86,1.4,5.49c0.93,1.64,2.23,2.92,3.9,3.85c1.67,0.93,3.57,1.4,5.69,1.4c2.13,0,4.02-0.47,5.69-1.4
				c1.67-0.93,2.97-2.22,3.9-3.85c0.93-1.63,1.4-3.46,1.4-5.49C1506,1366.37,1505.54,1364.54,1504.61,1362.91z"/>
			<path class="st9" d="M1508.7,1333.94c-2.71,2.73-6.59,4.09-11.63,4.09h-19.23v-7.95h18.93c6.15,0,9.22-2.55,9.22-7.65
				c0-2.48-0.74-4.38-2.23-5.69c-1.49-1.31-3.82-1.96-6.99-1.96h-18.93v-7.85h19.23c5.04,0,8.91,1.37,11.63,4.1
				c2.71,2.73,4.07,6.55,4.07,11.45C1512.77,1327.39,1511.42,1331.21,1508.7,1333.94z"/>
			<path class="st9" d="M1479.37,1270.41c1.01-2.24,2.45-3.96,4.32-5.17s4.07-1.82,6.62-1.82c2.52,0,4.72,0.61,6.6,1.82
				s3.32,2.93,4.32,5.17c1,2.24,1.5,4.88,1.5,7.92v6.92h9.47v7.95h-34.34v-14.86C1477.85,1275.3,1478.35,1272.66,1479.37,1270.41z
				 M1494.7,1273.33c-1.03-1.24-2.49-1.86-4.39-1.86c-1.93,0-3.41,0.62-4.44,1.86c-1.03,1.24-1.54,3.06-1.54,5.45v6.47h11.92v-6.47
				C1496.24,1276.39,1495.73,1274.58,1494.7,1273.33z"/>
			<path class="st9" d="M1510.47,1244.42c-1.54,2.86-3.66,5.1-6.35,6.72c-2.7,1.62-5.73,2.43-9.1,2.43c-3.37,0-6.4-0.81-9.1-2.43
				c-2.7-1.62-4.82-3.86-6.35-6.72c-1.54-2.86-2.31-6.07-2.31-9.64c0-3.56,0.77-6.77,2.31-9.62c1.54-2.84,3.65-5.08,6.35-6.72
				c2.7-1.64,5.73-2.45,9.1-2.45c3.37,0,6.4,0.82,9.1,2.45c2.7,1.64,4.81,3.88,6.35,6.72c1.54,2.85,2.3,6.05,2.3,9.62
				C1512.77,1238.34,1512.01,1241.55,1510.47,1244.42z M1504.61,1229.28c-0.93-1.64-2.23-2.92-3.9-3.85
				c-1.67-0.93-3.56-1.4-5.69-1.4c-2.12,0-4.02,0.47-5.69,1.4c-1.67,0.93-2.97,2.21-3.9,3.85s-1.4,3.47-1.4,5.49
				c0,2.03,0.47,3.86,1.4,5.49c0.93,1.64,2.23,2.92,3.9,3.85c1.67,0.93,3.57,1.4,5.69,1.4c2.13,0,4.02-0.47,5.69-1.4
				c1.67-0.93,2.97-2.22,3.9-3.85c0.93-1.63,1.4-3.46,1.4-5.49C1506,1232.75,1505.54,1230.92,1504.61,1229.28z"/>
			<path class="st9" d="M1477.85,1172.62h34.34v6.52l-20.85,17.12h20.85v7.85h-34.34v-6.57l20.85-17.07h-20.85V1172.62z"/>
		</g>
		<g>
			<g>
				<path class="st5" d="M1072.78,1507.94c-1.18-0.64-2.1-1.52-2.77-2.65c-0.67-1.13-1.01-2.39-1.01-3.79
					c0-1.39,0.33-2.66,1.01-3.79c0.67-1.13,1.59-2.01,2.77-2.65c1.18-0.64,2.5-0.95,3.96-0.95c1.46,0,2.78,0.32,3.96,0.95
					c1.18,0.64,2.1,1.52,2.77,2.64c0.67,1.12,1.01,2.39,1.01,3.8c0,1.41-0.34,2.68-1.01,3.8c-0.67,1.12-1.59,2-2.77,2.64
					c-1.18,0.64-2.5,0.95-3.96,0.95C1075.28,1508.89,1073.96,1508.57,1072.78,1507.94z M1079.33,1505.91
					c0.77-0.43,1.37-1.03,1.81-1.81c0.44-0.77,0.66-1.64,0.66-2.6c0-0.96-0.22-1.82-0.66-2.6c-0.44-0.77-1.04-1.37-1.81-1.8
					c-0.77-0.43-1.63-0.65-2.59-0.65c-0.96,0-1.82,0.22-2.59,0.65c-0.77,0.43-1.37,1.03-1.81,1.8c-0.44,0.77-0.66,1.64-0.66,2.6
					c0,0.96,0.22,1.82,0.66,2.6c0.44,0.77,1.04,1.38,1.81,1.81c0.77,0.43,1.63,0.65,2.59,0.65
					C1077.7,1506.55,1078.57,1506.34,1079.33,1505.91z"/>
			</g>
			<g>
				<path class="st5" d="M1103.36,1494.32v14.37h-2.2l-7.92-9.73v9.73h-2.65v-14.37h2.2l7.92,9.73v-9.73H1103.36z"/>
			</g>
			<g>
				<path class="st5" d="M1120.69,1508.42c-1.03-0.31-1.85-0.73-2.45-1.25l0.92-2.07c0.59,0.46,1.31,0.84,2.17,1.14
					c0.85,0.29,1.71,0.44,2.58,0.44c1.07,0,1.86-0.17,2.39-0.51c0.53-0.34,0.79-0.79,0.79-1.35c0-0.41-0.15-0.75-0.44-1.02
					c-0.29-0.27-0.67-0.47-1.12-0.63c-0.45-0.15-1.07-0.32-1.85-0.51c-1.1-0.26-1.98-0.52-2.66-0.78c-0.68-0.26-1.26-0.67-1.74-1.22
					c-0.49-0.55-0.73-1.3-0.73-2.25c0-0.79,0.22-1.51,0.65-2.17c0.43-0.65,1.08-1.17,1.95-1.55c0.87-0.38,1.93-0.57,3.19-0.57
					c0.88,0,1.74,0.11,2.59,0.33c0.85,0.22,1.58,0.53,2.2,0.94l-0.84,2.07c-0.63-0.37-1.29-0.65-1.97-0.84
					c-0.68-0.19-1.35-0.29-1.99-0.29c-1.05,0-1.84,0.18-2.35,0.53c-0.51,0.36-0.77,0.83-0.77,1.42c0,0.41,0.15,0.75,0.44,1.01
					c0.29,0.26,0.67,0.46,1.12,0.62c0.45,0.15,1.07,0.32,1.85,0.51c1.07,0.25,1.94,0.5,2.63,0.77c0.68,0.27,1.27,0.67,1.76,1.22
					c0.48,0.55,0.73,1.29,0.73,2.22c0,0.79-0.22,1.51-0.65,2.15c-0.43,0.64-1.08,1.16-1.96,1.54c-0.88,0.38-1.94,0.57-3.2,0.57
					C1122.8,1508.89,1121.73,1508.73,1120.69,1508.42z"/>
			</g>
			<g>
				<path class="st5" d="M1146.42,1506.45v2.24h-10.77v-14.37h10.49v2.24h-7.82v3.74h6.94v2.19h-6.94v3.96H1146.42z"/>
			</g>
			<g>
				<path class="st5" d="M1152.68,1494.32h2.67v12.11h7.51v2.26h-10.18V1494.32z"/>
			</g>
			<g>
				<path class="st5" d="M1179.03,1506.45v2.24h-10.77v-14.37h10.49v2.24h-7.82v3.74h6.94v2.19h-6.94v3.96H1179.03z"/>
			</g>
			<g>
				<path class="st5" d="M1187.95,1507.94c-1.17-0.64-2.09-1.52-2.75-2.64c-0.66-1.12-0.99-2.39-0.99-3.8c0-1.41,0.33-2.67,1.01-3.8
					c0.67-1.12,1.59-2,2.76-2.64c1.17-0.64,2.48-0.95,3.93-0.95c1.18,0,2.25,0.21,3.22,0.62c0.97,0.41,1.79,1,2.46,1.78l-1.72,1.62
					c-1.04-1.12-2.32-1.68-3.84-1.68c-0.99,0-1.87,0.22-2.65,0.65c-0.78,0.43-1.39,1.03-1.83,1.8c-0.44,0.77-0.66,1.63-0.66,2.61
					c0,0.97,0.22,1.84,0.66,2.61c0.44,0.77,1.05,1.36,1.83,1.8c0.78,0.43,1.66,0.65,2.65,0.65c1.52,0,2.8-0.57,3.84-1.7l1.72,1.64
					c-0.67,0.78-1.5,1.38-2.47,1.79c-0.98,0.41-2.06,0.62-3.23,0.62C1190.43,1508.89,1189.12,1508.57,1187.95,1507.94z"/>
			</g>
			<g>
				<path class="st5" d="M1206.18,1496.58h-4.76v-2.26h12.19v2.26h-4.76v12.11h-2.67V1496.58z"/>
			</g>
			<g>
				<path class="st5" d="M1229.68,1506.45v2.24h-10.77v-14.37h10.49v2.24h-7.82v3.74h6.94v2.19h-6.94v3.96H1229.68z"/>
			</g>
			<g>
				<path class="st5" d="M1235.94,1494.32h6.28c1.53,0,2.89,0.3,4.08,0.89c1.19,0.6,2.11,1.44,2.77,2.53
					c0.66,1.09,0.99,2.34,0.99,3.76c0,1.42-0.33,2.68-0.99,3.77c-0.66,1.09-1.58,1.93-2.77,2.53c-1.19,0.6-2.55,0.89-4.08,0.89
					h-6.28V1494.32z M1242.09,1506.43c1.05,0,1.98-0.2,2.78-0.6c0.8-0.4,1.42-0.98,1.85-1.72c0.43-0.75,0.65-1.61,0.65-2.6
					c0-0.98-0.22-1.85-0.65-2.6c-0.43-0.75-1.05-1.32-1.85-1.72c-0.8-0.4-1.73-0.61-2.78-0.61h-3.49v9.85H1242.09z"/>
			</g>
			<g>
				<path class="st5" d="M1265.12,1494.32h2.67v14.37h-2.67V1494.32z"/>
			</g>
			<g>
				<path class="st5" d="M1277.86,1496.58h-4.76v-2.26h12.19v2.26h-4.76v12.11h-2.67V1496.58z"/>
			</g>
			<g>
				<path class="st5" d="M1301.36,1506.45v2.24h-10.77v-14.37h10.49v2.24h-7.82v3.74h6.94v2.19h-6.94v3.96H1301.36z"/>
			</g>
			<g>
				<path class="st5" d="M1320.82,1508.69l-0.02-9.52l-4.72,7.88h-1.19l-4.72-7.76v9.4h-2.54v-14.37h2.2l5.71,9.52l5.6-9.52h2.2
					l0.02,14.37H1320.82z"/>
			</g>
			<g>
				<path class="st5" d="M1331.75,1508.42c-1.03-0.31-1.85-0.73-2.45-1.25l0.92-2.07c0.59,0.46,1.31,0.84,2.17,1.14
					c0.85,0.29,1.71,0.44,2.58,0.44c1.07,0,1.86-0.17,2.39-0.51c0.53-0.34,0.79-0.79,0.79-1.35c0-0.41-0.15-0.75-0.44-1.02
					c-0.29-0.27-0.67-0.47-1.12-0.63c-0.45-0.15-1.07-0.32-1.85-0.51c-1.1-0.26-1.98-0.52-2.66-0.78c-0.68-0.26-1.26-0.67-1.74-1.22
					c-0.49-0.55-0.73-1.3-0.73-2.25c0-0.79,0.22-1.51,0.65-2.17c0.43-0.65,1.08-1.17,1.95-1.55c0.87-0.38,1.93-0.57,3.19-0.57
					c0.88,0,1.74,0.11,2.59,0.33c0.85,0.22,1.58,0.53,2.2,0.94l-0.84,2.07c-0.63-0.37-1.29-0.65-1.97-0.84
					c-0.68-0.19-1.35-0.29-1.99-0.29c-1.05,0-1.84,0.18-2.35,0.53c-0.51,0.36-0.77,0.83-0.77,1.42c0,0.41,0.15,0.75,0.44,1.01
					c0.29,0.26,0.67,0.46,1.12,0.62c0.45,0.15,1.07,0.32,1.85,0.51c1.07,0.25,1.94,0.5,2.63,0.77c0.68,0.27,1.27,0.67,1.76,1.22
					c0.48,0.55,0.73,1.29,0.73,2.22c0,0.79-0.22,1.51-0.65,2.15c-0.43,0.64-1.08,1.16-1.96,1.54c-0.88,0.38-1.94,0.57-3.2,0.57
					C1333.85,1508.89,1332.78,1508.73,1331.75,1508.42z"/>
			</g>
		</g>
		<g>
			<g>
				<path class="st6" d="M1588.98,1680.45H466.35c-21.68,0-39.32-17.64-39.32-39.32v-496.96c0-21.68,17.64-39.32,39.32-39.32
					h1122.64c21.68,0,39.31,17.64,39.31,39.32v496.96C1628.3,1662.81,1610.66,1680.45,1588.98,1680.45z M466.35,1109.17
					c-19.3,0-35,15.7-35,35v496.96c0,19.3,15.7,35,35,35h1122.64c19.3,0,35-15.7,35-35v-496.96c0-19.3-15.7-35-35-35H466.35z"/>
			</g>
		</g>
		<g>
			<g>
				<path class="st1" d="M1588.99,1104.87h-185.43v4.31h185.43c19.29,0,35,15.69,35,35v496.95c0,19.29-15.71,35-35,35h-185.43v4.31
					h185.43c21.68,0,39.31-17.63,39.31-39.31v-496.95C1628.3,1122.5,1610.67,1104.87,1588.99,1104.87z"/>
			</g>
		</g>
		<g>
			<path class="st6" d="M1285.49,1189.99h-163.28c-30.53,0-55.28,24.75-55.28,55.28v114.83c0,30.53,24.75,55.28,55.28,55.28h109.31
				c-17.22,24.48-84.64,56.82-81.53,56.82c3.35,0,128.17-41.31,158.57-61.87c19.01-8.74,32.21-27.94,32.21-50.23v-114.83
				C1340.76,1214.73,1316.02,1189.99,1285.49,1189.99z"/>
		</g>
		<g>
			<g>
				<g>
					<path class="st3" d="M1251.29,1328.97c2.02,1.16,3.62,2.77,4.78,4.84c1.17,2.07,1.75,4.41,1.75,7.03
						c0,2.61-0.58,4.96-1.75,7.04c-1.17,2.08-2.76,3.7-4.78,4.86c-2.02,1.16-4.28,1.73-6.76,1.73s-4.74-0.58-6.76-1.73
						c-2.02-1.15-3.62-2.77-4.78-4.86c-1.17-2.08-1.75-4.43-1.75-7.04c0-2.61,0.58-4.95,1.75-7.03c1.17-2.07,2.76-3.68,4.78-4.84
						c2.02-1.15,4.28-1.73,6.76-1.73S1249.27,1327.82,1251.29,1328.97z M1240.43,1333.19c-1.18,0.7-2.1,1.71-2.77,3.03
						c-0.67,1.32-1,2.86-1,4.61c0,1.76,0.33,3.3,1,4.61c0.67,1.32,1.59,2.33,2.77,3.03c1.18,0.7,2.55,1.05,4.11,1.05
						c1.56,0,2.93-0.35,4.11-1.05c1.18-0.7,2.1-1.71,2.77-3.03c0.66-1.32,1-2.86,1-4.61c0-1.76-0.33-3.3-1-4.61
						c-0.67-1.32-1.59-2.33-2.77-3.03c-1.18-0.7-2.55-1.05-4.11-1.05C1242.97,1332.14,1241.61,1332.49,1240.43,1333.19z"/>
				</g>
				<g>
					<path class="st3" d="M1282.09,1327.61v4.22h-11.19v7.12h8.97v4.07h-8.97v11.19h-5.31v-26.6H1282.09z"/>
				</g>
				<g>
					<path class="st3" d="M1305.93,1327.61v4.22h-11.19v7.12h8.97v4.07h-8.97v11.19h-5.31v-26.6H1305.93z"/>
				</g>
			</g>
			<g>
				<g>
					<path class="st1" d="M1127.65,1354.08c-6.43,0-11.53-1.23-15.32-3.7c-3.79-2.46-6.49-6.03-8.12-10.7
						c-1.63-4.66-2.44-10.21-2.44-16.64h14.13c0,3.17,0.26,6.27,0.79,9.31c0.53,3.04,1.65,5.55,3.37,7.53
						c1.72,1.98,4.34,2.97,7.86,2.97c3.87,0,6.65-1.12,8.32-3.37c1.67-2.25,2.73-5.28,3.17-9.11c0.44-3.83,0.66-8.16,0.66-13.01
						c0-4.84-0.26-8.96-0.79-12.35c-0.53-3.39-1.63-5.99-3.3-7.79c-1.67-1.8-4.31-2.71-7.92-2.71c-2.91,0-5.37,0.9-7.4,2.71
						c-2.03,1.81-3.52,3.85-4.49,6.14h-12.02v-57.31h46.09v14.13h-33.28l-0.92,29.58c1.76-1.85,3.94-3.3,6.54-4.36
						c2.6-1.06,5.57-1.58,8.91-1.58c5.81,0,10.37,1.37,13.67,4.09c3.3,2.73,5.63,6.47,7,11.23c1.36,4.75,2.05,10.21,2.05,16.38
						c0,5.46-0.4,10.54-1.19,15.25c-0.79,4.71-2.18,8.8-4.16,12.28c-1.98,3.48-4.69,6.19-8.12,8.12
						C1137.29,1353.11,1132.93,1354.08,1127.65,1354.08z"/>
				</g>
				<g>
					<path class="st1" d="M1188.89,1354.21c-6.07,0-11.07-1.36-14.99-4.09c-3.92-2.73-6.82-6.47-8.72-11.22
						c-1.89-4.75-2.84-10.17-2.84-16.24v-46.09c0-6.25,0.92-11.73,2.77-16.44c1.85-4.71,4.73-8.39,8.65-11.03
						c3.92-2.64,8.96-3.96,15.12-3.96c6.16,0,11.18,1.32,15.05,3.96c3.87,2.64,6.73,6.32,8.58,11.03
						c1.85,4.71,2.77,10.19,2.77,16.44v46.09c0,6.16-0.95,11.62-2.84,16.38c-1.89,4.75-4.78,8.47-8.65,11.16
						C1199.93,1352.87,1194.96,1354.21,1188.89,1354.21z M1188.89,1342.59c3.35,0,5.88-0.97,7.59-2.91
						c1.72-1.94,2.91-4.42,3.57-7.46c0.66-3.04,0.99-6.18,0.99-9.44v-46.35c0-3.43-0.31-6.67-0.92-9.71
						c-0.62-3.04-1.78-5.48-3.5-7.33c-1.72-1.85-4.29-2.77-7.73-2.77c-3.43,0-6.03,0.92-7.79,2.77c-1.76,1.85-2.95,4.29-3.57,7.33
						c-0.62,3.04-0.92,6.27-0.92,9.71v46.35c0,3.26,0.33,6.4,0.99,9.44c0.66,3.04,1.89,5.53,3.7,7.46
						C1183.1,1341.62,1185.63,1342.59,1188.89,1342.59z"/>
				</g>
			</g>
			<g>
				<g>
					<path class="st1" d="M1244.27,1282.61c-5.15,0-8.88-1.46-11.18-4.37c-2.3-2.91-3.45-6.82-3.45-11.74v-5.4
						c0-5.08,1.12-8.99,3.35-11.74s5.99-4.11,11.27-4.11c5.28,0,9.03,1.31,11.27,3.94c2.24,2.63,3.35,6.45,3.35,11.48v6.08
						c0,4.97-1.13,8.85-3.4,11.65C1253.23,1281.21,1249.49,1282.61,1244.27,1282.61z M1244.27,1275.67c1.61,0,2.81-0.41,3.59-1.24
						c0.78-0.83,1.3-1.93,1.58-3.3c0.28-1.37,0.42-2.83,0.42-4.37v-6.08c0-2.34-0.33-4.34-0.98-6c-0.65-1.66-2.19-2.48-4.61-2.48
						c-2.42,0-3.94,0.84-4.56,2.53c-0.62,1.69-0.93,3.7-0.93,6.04v6.08c0,1.54,0.14,2.99,0.42,4.33c0.28,1.34,0.81,2.43,1.58,3.26
						C1241.56,1275.26,1242.72,1275.67,1244.27,1275.67z M1253.22,1315.16l20.77-69.47h8.57l-20.68,69.47H1253.22z M1291.31,1315.59
						c-5.15,0-8.86-1.44-11.13-4.33c-2.27-2.88-3.4-6.81-3.4-11.78v-5.4c0-5.02,1.1-8.92,3.31-11.69c2.2-2.77,5.95-4.15,11.22-4.15
						c5.34,0,9.11,1.33,11.32,3.98c2.2,2.66,3.31,6.5,3.31,11.52v6c0,5.03-1.13,8.92-3.4,11.69
						C1300.27,1314.21,1296.53,1315.59,1291.31,1315.59z M1291.31,1308.65c1.61,0,2.82-0.41,3.63-1.24c0.81-0.83,1.33-1.93,1.58-3.3
						c0.25-1.37,0.37-2.8,0.37-4.28v-6.17c0-2.34-0.33-4.34-0.98-6c-0.65-1.66-2.19-2.48-4.61-2.48c-2.42,0-3.94,0.84-4.56,2.53
						c-0.62,1.69-0.93,3.7-0.93,6.04v6.08c0,1.54,0.14,2.98,0.42,4.33c0.28,1.34,0.81,2.43,1.58,3.26
						C1288.59,1308.24,1289.76,1308.65,1291.31,1308.65z"/>
				</g>
			</g>
		</g>
		<g>
			<g>
				<g>
					<path class="st3" d="M1511.4,1513.29c0.83-1.45,1.98-2.59,3.46-3.42c1.48-0.84,3.16-1.25,5.03-1.25c1.87,0,3.55,0.42,5.04,1.25
						c1.49,0.84,2.65,1.98,3.48,3.42c0.83,1.45,1.24,3.06,1.24,4.84c0,1.78-0.41,3.39-1.24,4.84c-0.83,1.45-1.98,2.59-3.48,3.42
						c-1.49,0.84-3.17,1.25-5.04,1.25c-1.87,0-3.54-0.42-5.03-1.25c-1.48-0.84-2.64-1.98-3.46-3.42c-0.83-1.45-1.24-3.06-1.24-4.84
						C1510.16,1516.35,1510.57,1514.74,1511.4,1513.29z M1514.42,1521.07c0.5,0.84,1.23,1.51,2.17,1.98
						c0.94,0.48,2.04,0.71,3.3,0.71c1.26,0,2.36-0.24,3.3-0.71c0.94-0.48,1.67-1.14,2.17-1.98c0.5-0.84,0.75-1.82,0.75-2.94
						c0-1.11-0.25-2.09-0.75-2.94c-0.5-0.84-1.23-1.5-2.17-1.98c-0.94-0.48-2.04-0.71-3.3-0.71c-1.26,0-2.36,0.24-3.3,0.71
						c-0.94,0.48-1.67,1.14-2.17,1.98c-0.5,0.84-0.75,1.82-0.75,2.94C1513.66,1519.25,1513.92,1520.22,1514.42,1521.07z"/>
				</g>
				<g>
					<path class="st3" d="M1510.43,1491.26h3.02v8h5.09v-6.41h2.91v6.41h8v3.8h-19.03V1491.26z"/>
				</g>
				<g>
					<path class="st3" d="M1510.43,1474.2h3.02v8h5.09v-6.41h2.91v6.41h8v3.8h-19.03V1474.2z"/>
				</g>
			</g>
			<g>
				<g>
					<path class="st1" d="M1529.36,1601.75c0,4.6-0.88,8.25-2.65,10.96c-1.76,2.71-4.31,4.65-7.65,5.81
						c-3.34,1.17-7.31,1.75-11.9,1.75v-10.11c2.27,0,4.49-0.19,6.66-0.57c2.17-0.38,3.97-1.18,5.39-2.41
						c1.42-1.23,2.13-3.1,2.13-5.62c0-2.77-0.8-4.75-2.41-5.95c-1.61-1.2-3.78-1.95-6.52-2.27c-2.74-0.31-5.84-0.47-9.31-0.47
						c-3.46,0-6.41,0.19-8.83,0.57c-2.42,0.38-4.28,1.17-5.57,2.36c-1.29,1.2-1.94,3.09-1.94,5.67c0,2.08,0.65,3.84,1.94,5.29
						c1.29,1.45,2.76,2.52,4.39,3.21v8.6h-41v-32.97h10.11v23.81l21.16,0.66c-1.32-1.26-2.36-2.82-3.12-4.68
						c-0.76-1.86-1.13-3.98-1.13-6.38c0-4.16,0.98-7.42,2.93-9.78c1.95-2.36,4.63-4.03,8.03-5.01c3.4-0.98,7.31-1.46,11.72-1.46
						c3.91,0,7.54,0.28,10.91,0.85c3.37,0.57,6.3,1.56,8.79,2.98c2.49,1.42,4.43,3.35,5.81,5.81
						C1528.67,1594.85,1529.36,1597.97,1529.36,1601.75z"/>
				</g>
				<g>
					<path class="st1" d="M1529.46,1557.94c0,4.35-0.98,7.92-2.93,10.72c-1.95,2.8-4.63,4.88-8.03,6.24
						c-3.4,1.36-7.27,2.03-11.62,2.03h-32.97c-4.47,0-8.39-0.66-11.76-1.98c-3.37-1.32-6-3.39-7.89-6.19
						c-1.89-2.8-2.83-6.41-2.83-10.82c0-4.41,0.94-8,2.83-10.77c1.89-2.77,4.52-4.82,7.89-6.14c3.37-1.32,7.29-1.98,11.76-1.98
						h32.97c4.41,0,8.31,0.68,11.72,2.03c3.4,1.36,6.06,3.42,7.98,6.19C1528.5,1550.04,1529.46,1553.6,1529.46,1557.94z
						 M1521.14,1557.94c0-2.39-0.69-4.2-2.08-5.43c-1.38-1.23-3.16-2.08-5.34-2.55c-2.17-0.47-4.42-0.71-6.76-0.71h-33.16
						c-2.46,0-4.77,0.22-6.94,0.66c-2.17,0.44-3.92,1.28-5.24,2.5c-1.32,1.23-1.98,3.07-1.98,5.53c0,2.46,0.66,4.31,1.98,5.57
						c1.32,1.26,3.07,2.11,5.24,2.55c2.17,0.44,4.49,0.66,6.94,0.66h33.16c2.33,0,4.58-0.24,6.76-0.71
						c2.17-0.47,3.95-1.35,5.34-2.65C1520.45,1562.08,1521.14,1560.27,1521.14,1557.94z"/>
				</g>
			</g>
			<g>
				<g>
					<path class="st1" d="M1478.23,1518.31c0,3.69-1.04,6.35-3.13,8c-2.08,1.64-4.88,2.47-8.4,2.47h-3.86c-3.64,0-6.44-0.8-8.4-2.4
						c-1.96-1.6-2.94-4.29-2.94-8.06c0-3.78,0.94-6.46,2.82-8.06c1.88-1.6,4.62-2.4,8.21-2.4h4.35c3.55,0,6.33,0.81,8.33,2.43
						C1477.23,1511.91,1478.23,1514.58,1478.23,1518.31z M1473.27,1518.31c0-1.15-0.3-2.01-0.89-2.57
						c-0.59-0.55-1.38-0.93-2.36-1.13c-0.98-0.2-2.02-0.3-3.13-0.3h-4.35c-1.67,0-3.1,0.23-4.29,0.7c-1.18,0.47-1.78,1.57-1.78,3.3
						s0.6,2.82,1.81,3.27c1.21,0.44,2.65,0.67,4.32,0.67h4.35c1.1,0,2.14-0.1,3.09-0.3c0.96-0.2,1.74-0.58,2.33-1.13
						C1472.97,1520.26,1473.27,1519.43,1473.27,1518.31z M1501.52,1511.92l-49.7-14.86v-6.13l49.7,14.79V1511.92z M1501.83,1484.66
						c0,3.69-1.03,6.34-3.1,7.96c-2.06,1.62-4.87,2.43-8.43,2.43h-3.86c-3.59,0-6.38-0.79-8.37-2.37c-1.98-1.58-2.97-4.25-2.97-8.03
						c0-3.82,0.95-6.52,2.85-8.1c1.9-1.58,4.65-2.37,8.24-2.37h4.29c3.6,0,6.38,0.81,8.37,2.43
						C1500.84,1478.26,1501.83,1480.93,1501.83,1484.66z M1496.86,1484.66c0-1.15-0.3-2.02-0.89-2.6c-0.59-0.58-1.38-0.95-2.36-1.13
						c-0.98-0.18-2-0.27-3.06-0.27h-4.41c-1.67,0-3.1,0.23-4.29,0.7c-1.18,0.47-1.78,1.57-1.78,3.3c0,1.73,0.6,2.82,1.81,3.27
						c1.21,0.44,2.65,0.67,4.32,0.67h4.35c1.1,0,2.14-0.1,3.1-0.3c0.96-0.2,1.74-0.58,2.33-1.13
						C1496.57,1486.61,1496.86,1485.77,1496.86,1484.66z"/>
				</g>
			</g>
		</g>
		<g>
			<g>
				<path class="st6" d="M601.91,1409.39c-4.08,6.73-10.09,12.09-18.03,16.1c-7.94,4.01-17.57,6.01-28.87,6.01
					c-17.03,0-31.06-4.15-42.07-12.45c-11.02-8.3-17.03-19.89-18.03-34.78h39.07c0.57,5.73,2.61,10.24,6.12,13.52
					c3.51,3.29,7.98,4.94,13.42,4.94c4.72,0,8.44-1.29,11.16-3.86c2.72-2.58,4.08-6.01,4.08-10.3c0-3.86-1.25-7.08-3.76-9.66
					c-2.51-2.58-5.62-4.69-9.34-6.33c-3.72-1.64-8.88-3.61-15.46-5.9c-9.59-3.29-17.43-6.47-23.51-9.55
					c-6.08-3.08-11.31-7.66-15.67-13.74c-4.37-6.08-6.55-13.99-6.55-23.72c0-9.02,2.29-16.82,6.87-23.4
					c4.58-6.58,10.91-11.63,19-15.13c8.08-3.5,17.35-5.26,27.8-5.26c16.88,0,30.3,4.01,40.25,12.02
					c9.94,8.02,15.56,19.03,16.85,33.06h-39.71c-0.72-5.01-2.54-8.98-5.47-11.91c-2.93-2.93-6.91-4.4-11.91-4.4
					c-4.29,0-7.76,1.15-10.41,3.44c-2.65,2.29-3.97,5.65-3.97,10.09c0,3.58,1.18,6.62,3.54,9.12c2.36,2.51,5.33,4.55,8.91,6.12
					c3.58,1.58,8.73,3.58,15.46,6.01c9.73,3.3,17.67,6.55,23.83,9.77c6.15,3.22,11.45,7.91,15.88,14.06
					c4.44,6.15,6.65,14.17,6.65,24.04C608.03,1395.3,605.99,1402.67,601.91,1409.39z"/>
			</g>
			<g>
				<path class="st6" d="M722.44,1402.31h-56.89l-9.45,27.69h-38.64l55.6-150.69h42.29l55.6,150.69h-39.07L722.44,1402.31z
					 M713,1374.4l-18.89-55.81L675,1374.4H713z"/>
			</g>
			<g>
				<path class="st6" d="M821.83,1401.88h48.94V1430h-85.65v-151.77h36.71V1401.88z"/>
			</g>
			<g>
				<path class="st6" d="M924.44,1307.43v31.77h51.3v27.69h-51.3v33.7h57.74V1430h-94.45v-151.77h94.45v29.19H924.44z"/>
			</g>
		</g>
		<g>
			<g>
				<path class="st6" d="M534.63,1460.77c4.71,3.78,7.75,8.89,9.14,15.32h-14.44c-1.06-2.61-2.7-4.65-4.91-6.14
					c-2.21-1.49-4.83-2.23-7.86-2.23c-3.99,0-7.21,1.46-9.66,4.39c-2.45,2.93-3.67,6.84-3.67,11.73c0,4.9,1.22,8.79,3.67,11.69
					c2.45,2.9,5.67,4.35,9.66,4.35c3.03,0,5.65-0.74,7.86-2.23c2.21-1.49,3.84-3.51,4.91-6.06h14.44
					c-1.38,6.39-4.43,11.48-9.14,15.28c-4.71,3.8-10.65,5.71-17.83,5.71c-5.48,0-10.29-1.21-14.44-3.63
					c-4.15-2.42-7.35-5.81-9.61-10.17c-2.26-4.36-3.39-9.34-3.39-14.92c0-5.58,1.13-10.56,3.39-14.92
					c2.26-4.36,5.47-7.75,9.61-10.17c4.15-2.42,8.96-3.63,14.44-3.63C523.98,1455.11,529.92,1457,534.63,1460.77z"/>
			</g>
			<g>
				<path class="st6" d="M623.04,1458.5c4.33,2.47,7.75,5.9,10.25,10.29c2.5,4.39,3.75,9.35,3.75,14.88
					c0,5.53-1.26,10.51-3.79,14.92c-2.53,4.42-5.96,7.86-10.29,10.33c-4.34,2.47-9.14,3.71-14.4,3.71c-5.27,0-10.07-1.24-14.4-3.71
					c-4.34-2.48-7.77-5.92-10.29-10.33c-2.53-4.42-3.79-9.39-3.79-14.92c0-5.53,1.26-10.49,3.79-14.88
					c2.53-4.39,5.96-7.82,10.29-10.29c4.34-2.47,9.14-3.71,14.4-3.71C613.88,1454.79,618.71,1456.03,623.04,1458.5z M597.91,1471.83
					c-2.63,2.9-3.95,6.85-3.95,11.85c0,4.95,1.32,8.88,3.95,11.81c2.63,2.93,6.18,4.39,10.65,4.39c4.42,0,7.95-1.46,10.61-4.39
					c2.66-2.93,3.99-6.86,3.99-11.81c0-4.95-1.32-8.88-3.95-11.81c-2.63-2.93-6.18-4.39-10.65-4.39
					C604.09,1467.48,600.54,1468.93,597.91,1471.83z"/>
			</g>
			<g>
				<path class="st6" d="M688.27,1455.67v32.56c0,3.72,0.84,6.57,2.51,8.54c1.68,1.97,4.11,2.95,7.3,2.95c3.19,0,5.63-0.98,7.3-2.95
					c1.68-1.97,2.51-4.81,2.51-8.54v-32.56h13.65v32.56c0,5.32-1.04,9.8-3.11,13.45c-2.07,3.64-4.91,6.38-8.5,8.22
					c-3.59,1.84-7.65,2.75-12.17,2.75c-4.52,0-8.51-0.9-11.97-2.71c-3.46-1.81-6.17-4.55-8.14-8.22c-1.97-3.67-2.95-8.16-2.95-13.48
					v-32.56H688.27z"/>
			</g>
			<g>
				<path class="st6" d="M774.61,1492.29v19.79h-13.65v-56.42h22.1c6.7,0,11.81,1.66,15.32,4.99c3.51,3.32,5.27,7.81,5.27,13.45
					c0,3.51-0.79,6.64-2.35,9.38c-1.57,2.74-3.9,4.89-6.98,6.46c-3.09,1.57-6.84,2.35-11.25,2.35H774.61z M789.77,1474.1
					c0-4.95-2.74-7.42-8.22-7.42h-6.94v14.68h6.94C787.03,1481.36,789.77,1478.94,789.77,1474.1z"/>
			</g>
			<g>
				<path class="st6" d="M881.97,1458.5c4.33,2.47,7.75,5.9,10.25,10.29c2.5,4.39,3.75,9.35,3.75,14.88
					c0,5.53-1.26,10.51-3.79,14.92c-2.53,4.42-5.96,7.86-10.29,10.33c-4.34,2.47-9.14,3.71-14.4,3.71c-5.27,0-10.07-1.24-14.4-3.71
					c-4.34-2.48-7.77-5.92-10.29-10.33c-2.53-4.42-3.79-9.39-3.79-14.92c0-5.53,1.26-10.49,3.79-14.88
					c2.53-4.39,5.96-7.82,10.29-10.29c4.34-2.47,9.14-3.71,14.4-3.71C872.81,1454.79,877.64,1456.03,881.97,1458.5z M856.84,1471.83
					c-2.63,2.9-3.95,6.85-3.95,11.85c0,4.95,1.32,8.88,3.95,11.81c2.63,2.93,6.18,4.39,10.65,4.39c4.42,0,7.95-1.46,10.61-4.39
					c2.66-2.93,3.99-6.86,3.99-11.81c0-4.95-1.32-8.88-3.95-11.81c-2.63-2.93-6.18-4.39-10.65-4.39
					C863.02,1467.48,859.47,1468.93,856.84,1471.83z"/>
			</g>
			<g>
				<path class="st6" d="M984.07,1512.08h-13.65l-22.82-34.63v34.63h-13.65v-56.42h13.65l22.82,34.95v-34.95h13.65V1512.08z"/>
			</g>
		</g>
		<g>
			<path class="st5" d="M515.38,1585.95v26.99h-2.35l-17.35-21.9v21.9h-2.85v-26.99h2.35l17.39,21.9v-21.9H515.38z"/>
			<path class="st5" d="M528.7,1611.38c-2.17-1.2-3.87-2.84-5.09-4.92c-1.22-2.08-1.83-4.42-1.83-7.02c0-2.6,0.61-4.94,1.83-7.02
				c1.22-2.08,2.92-3.72,5.09-4.91s4.59-1.79,7.27-1.79c2.67,0,5.08,0.59,7.23,1.77c2.15,1.18,3.84,2.82,5.07,4.92
				c1.23,2.1,1.85,4.44,1.85,7.04c0,2.6-0.62,4.94-1.85,7.04c-1.23,2.1-2.92,3.74-5.07,4.92c-2.15,1.18-4.56,1.77-7.23,1.77
				C533.3,1613.18,530.88,1612.58,528.7,1611.38z M541.76,1609.19c1.72-0.96,3.07-2.3,4.05-4.01c0.98-1.71,1.47-3.62,1.47-5.73
				c0-2.11-0.49-4.02-1.47-5.73c-0.98-1.71-2.33-3.05-4.05-4.01c-1.72-0.96-3.65-1.45-5.78-1.45c-2.13,0-4.07,0.48-5.8,1.45
				c-1.74,0.96-3.1,2.3-4.09,4.01c-0.99,1.71-1.49,3.62-1.49,5.73c0,2.11,0.49,4.02,1.49,5.73c0.99,1.71,2.35,3.05,4.09,4.01
				c1.74,0.96,3.67,1.45,5.8,1.45C538.11,1610.63,540.04,1610.15,541.76,1609.19z"/>
			<path class="st5" d="M554.77,1596.09c-0.4-0.41-0.6-0.91-0.6-1.51c0-0.59,0.2-1.08,0.6-1.48c0.4-0.4,0.88-0.6,1.45-0.6
				c0.57,0,1.05,0.2,1.47,0.6c0.41,0.4,0.62,0.89,0.62,1.48c0,0.59-0.21,1.09-0.62,1.51c-0.41,0.41-0.9,0.62-1.47,0.62
				C555.65,1596.71,555.17,1596.5,554.77,1596.09z M554.77,1612.52c-0.4-0.41-0.6-0.91-0.6-1.5c0-0.59,0.2-1.09,0.6-1.48
				c0.4-0.4,0.88-0.6,1.45-0.6c0.57,0,1.05,0.2,1.47,0.6c0.41,0.4,0.62,0.89,0.62,1.48c0,0.59-0.21,1.09-0.62,1.5
				c-0.41,0.41-0.9,0.62-1.47,0.62C555.65,1613.14,555.17,1612.93,554.77,1612.52z"/>
			<path class="st5" d="M579.9,1585.95v26.99h-2.78v-24.53h-6.36v-2.47H579.9z"/>
			<path class="st5" d="M604.77,1610.48v2.47h-18.93v-1.97l11.22-10.99c1.41-1.39,2.37-2.59,2.87-3.61c0.5-1.01,0.75-2.04,0.75-3.06
				c0-1.59-0.55-2.84-1.64-3.72c-1.09-0.89-2.66-1.33-4.69-1.33c-3.16,0-5.62,1-7.37,3.01l-1.97-1.7c1.05-1.24,2.4-2.18,4.03-2.85
				c1.63-0.67,3.48-1,5.53-1c2.75,0,4.93,0.65,6.54,1.95c1.61,1.3,2.41,3.08,2.41,5.34c0,1.39-0.31,2.73-0.93,4.01
				c-0.62,1.28-1.79,2.76-3.51,4.43l-9.18,9.02H604.77z"/>
			<path class="st5" d="M623.88,1599.81c1.48,1.37,2.22,3.17,2.22,5.38c0,1.54-0.37,2.91-1.12,4.11c-0.75,1.2-1.85,2.14-3.32,2.83
				c-1.47,0.69-3.25,1.04-5.36,1.04c-1.95,0-3.8-0.32-5.53-0.95s-3.13-1.47-4.18-2.53l1.35-2.2c0.9,0.92,2.1,1.68,3.59,2.26
				c1.49,0.58,3.08,0.87,4.78,0.87c2.21,0,3.92-0.48,5.13-1.45c1.21-0.96,1.81-2.29,1.81-3.99c0-1.67-0.6-2.98-1.81-3.93
				c-1.21-0.95-3.03-1.43-5.48-1.43h-1.93v-2.04l7.48-9.37H607.7v-2.47h17.35v1.97l-7.64,9.6
				C620.24,1597.67,622.4,1598.44,623.88,1599.81z"/>
			<path class="st5" d="M652.93,1605.85h-5.4v7.1h-2.78v-7.1h-15.23v-2.01l14.31-17.89h3.08l-13.81,17.43h11.72v-6.25h2.7v6.25h5.4
				V1605.85z"/>
			<path class="st5" d="M656.17,1601.3h10.1v2.39h-10.1V1601.3z"/>
			<path class="st5" d="M686.23,1599.12c1.79,1.4,2.68,3.36,2.68,5.88c0,1.57-0.37,2.97-1.1,4.2c-0.73,1.23-1.83,2.2-3.3,2.91
				c-1.47,0.71-3.27,1.06-5.4,1.06c-1.93,0-3.76-0.32-5.49-0.95s-3.13-1.47-4.18-2.53l1.35-2.2c0.9,0.92,2.08,1.68,3.55,2.26
				c1.47,0.58,3.05,0.87,4.74,0.87c2.24,0,3.97-0.5,5.19-1.51c1.22-1,1.83-2.34,1.83-4.01c0-1.85-0.69-3.25-2.06-4.2
				c-1.38-0.95-3.7-1.43-6.96-1.43h-5.75l1.39-13.53h14.77v2.47h-12.34l-0.93,8.6h3.47C681.6,1597.02,684.44,1597.72,686.23,1599.12
				z"/>
			<path class="st5" d="M708.33,1597.79c1.37,0.67,2.45,1.61,3.22,2.84c0.77,1.22,1.16,2.64,1.16,4.26c0,1.65-0.4,3.1-1.2,4.36
				c-0.8,1.26-1.9,2.23-3.3,2.91c-1.4,0.68-2.98,1.02-4.72,1.02c-3.57,0-6.31-1.18-8.21-3.53c-1.9-2.35-2.85-5.67-2.85-9.97
				c0-3.01,0.51-5.55,1.54-7.64c1.03-2.08,2.47-3.66,4.32-4.72c1.85-1.07,4.01-1.6,6.48-1.6c2.67,0,4.81,0.49,6.4,1.47l-1.12,2.24
				c-1.29-0.85-3.03-1.27-5.24-1.27c-2.98,0-5.32,0.95-7.02,2.83c-1.7,1.89-2.54,4.64-2.54,8.23c0,0.64,0.04,1.37,0.12,2.2
				c0.67-1.47,1.74-2.6,3.2-3.41c1.47-0.81,3.15-1.21,5.05-1.21C705.38,1596.79,706.95,1597.12,708.33,1597.79z M708.13,1609.22
				c1.22-1.07,1.83-2.49,1.83-4.26c0-1.77-0.61-3.19-1.83-4.24c-1.22-1.05-2.87-1.58-4.96-1.58c-1.36,0-2.56,0.26-3.61,0.77
				c-1.04,0.51-1.86,1.22-2.45,2.12c-0.59,0.9-0.89,1.9-0.89,3.01c0,1.03,0.28,1.98,0.83,2.85c0.55,0.87,1.37,1.58,2.45,2.12
				c1.08,0.54,2.36,0.81,3.86,0.81C705.33,1610.82,706.91,1610.29,708.13,1609.22z"/>
			<path class="st5" d="M731.54,1599.12c1.79,1.4,2.68,3.36,2.68,5.88c0,1.57-0.37,2.97-1.1,4.2c-0.73,1.23-1.83,2.2-3.3,2.91
				c-1.47,0.71-3.27,1.06-5.4,1.06c-1.93,0-3.76-0.32-5.49-0.95c-1.74-0.63-3.13-1.47-4.18-2.53l1.35-2.2
				c0.9,0.92,2.08,1.68,3.55,2.26c1.46,0.58,3.05,0.87,4.74,0.87c2.24,0,3.97-0.5,5.19-1.51c1.22-1,1.83-2.34,1.83-4.01
				c0-1.85-0.69-3.25-2.06-4.2c-1.38-0.95-3.7-1.43-6.96-1.43h-5.75l1.39-13.53h14.77v2.47h-12.34l-0.93,8.6H723
				C726.91,1597.02,729.75,1597.72,731.54,1599.12z"/>
			<path class="st5" d="M756.24,1585.95v1.97l-11.3,25.03h-3.01l11.11-24.53h-13.88v5.05h-2.74v-7.52H756.24z"/>
		</g>
		<g>
			<path class="st9" d="M1557.31,1494.82h25.6v2.23l-20.77,16.46h20.77v2.71h-25.6v-2.23l20.77-16.49h-20.77V1494.82z"/>
			<path class="st9" d="M1581.43,1482.19c-1.13,2.06-2.69,3.67-4.66,4.83c-1.98,1.16-4.19,1.74-6.66,1.74
				c-2.46,0-4.68-0.58-6.66-1.74c-1.98-1.16-3.53-2.77-4.66-4.83c-1.13-2.06-1.7-4.36-1.7-6.9c0-2.53,0.56-4.82,1.68-6.86
				c1.12-2.04,2.68-3.64,4.66-4.81c1.99-1.17,4.21-1.76,6.67-1.76c2.46,0,4.69,0.59,6.67,1.76c1.99,1.17,3.54,2.77,4.66,4.81
				c1.12,2.04,1.68,4.32,1.68,6.86C1583.13,1477.83,1582.57,1480.13,1581.43,1482.19z M1579.35,1469.8
				c-0.91-1.63-2.18-2.91-3.8-3.84s-3.43-1.39-5.43-1.39c-2,0-3.81,0.47-5.43,1.39c-1.62,0.93-2.89,2.21-3.8,3.84
				s-1.37,3.46-1.37,5.49c0,2.02,0.46,3.86,1.37,5.5c0.91,1.65,2.18,2.94,3.8,3.88c1.62,0.94,3.43,1.41,5.43,1.41
				c2,0,3.81-0.47,5.43-1.41c1.62-0.94,2.89-2.23,3.8-3.88c0.91-1.65,1.37-3.48,1.37-5.5
				C1580.72,1473.27,1580.26,1471.44,1579.35,1469.8z"/>
			<path class="st9" d="M1566.93,1457.46c-0.39,0.38-0.87,0.57-1.43,0.57c-0.56,0-1.03-0.19-1.41-0.57s-0.57-0.84-0.57-1.37
				c0-0.53,0.19-1,0.57-1.39s0.85-0.59,1.41-0.59c0.56,0,1.04,0.2,1.43,0.59c0.39,0.39,0.59,0.85,0.59,1.39
				C1567.52,1456.63,1567.32,1457.08,1566.93,1457.46z M1582.51,1457.46c-0.39,0.38-0.87,0.57-1.43,0.57
				c-0.56,0-1.03-0.19-1.41-0.57s-0.57-0.84-0.57-1.37c0-0.53,0.19-1,0.57-1.39s0.85-0.59,1.41-0.59c0.56,0,1.04,0.2,1.43,0.59
				c0.39,0.39,0.59,0.85,0.59,1.39C1583.1,1456.63,1582.9,1457.08,1582.51,1457.46z"/>
			<path class="st9" d="M1557.31,1433.64h25.6v2.63h-23.26v6.03h-2.34V1433.64z"/>
			<path class="st9" d="M1580.57,1410.04h2.34V1428h-1.86l-10.42-10.64c-1.32-1.34-2.46-2.25-3.42-2.72s-1.93-0.71-2.91-0.71
				c-1.51,0-2.69,0.52-3.53,1.55c-0.84,1.04-1.26,2.52-1.26,4.44c0,3,0.95,5.33,2.85,6.99l-1.61,1.86c-1.17-1-2.07-2.27-2.71-3.82
				c-0.63-1.55-0.95-3.3-0.95-5.25c0-2.61,0.62-4.68,1.85-6.2c1.23-1.52,2.92-2.29,5.07-2.29c1.32,0,2.58,0.29,3.8,0.88
				c1.22,0.59,2.62,1.69,4.21,3.33l8.56,8.71V1410.04z"/>
			<path class="st9" d="M1570.46,1391.92c1.31-1.4,3.01-2.1,5.1-2.1c1.46,0,2.76,0.35,3.9,1.06c1.13,0.71,2.03,1.76,2.69,3.14
				c0.66,1.39,0.99,3.08,0.99,5.08c0,1.85-0.3,3.6-0.9,5.25c-0.6,1.65-1.4,2.97-2.4,3.97l-2.08-1.28c0.88-0.85,1.59-1.98,2.14-3.4
				c0.55-1.41,0.82-2.93,0.82-4.54c0-2.1-0.46-3.72-1.37-4.86c-0.91-1.15-2.18-1.72-3.79-1.72c-1.58,0-2.83,0.57-3.73,1.72
				c-0.9,1.15-1.35,2.88-1.35,5.19v1.83h-1.94l-8.89-7.1v13.09h-2.34v-16.46h1.86l9.11,7.24
				C1568.43,1395.37,1569.16,1393.33,1570.46,1391.92z"/>
			<path class="st9" d="M1576.18,1364.37v5.12h6.73v2.63h-6.73v14.45h-1.9l-16.97-13.57v-2.93l16.53,13.09v-11.12h-5.93v-2.56h5.93
				v-5.12H1576.18z"/>
			<path class="st9" d="M1571.87,1361.29v-9.58h2.27v9.58H1571.87z"/>
			<path class="st9" d="M1569.8,1332.79c1.33-1.69,3.19-2.54,5.58-2.54c1.49,0,2.82,0.35,3.99,1.04c1.17,0.7,2.09,1.74,2.76,3.13
				c0.67,1.39,1.01,3.1,1.01,5.12c0,1.83-0.3,3.57-0.9,5.21c-0.6,1.64-1.4,2.97-2.4,3.97l-2.08-1.28c0.88-0.85,1.59-1.98,2.14-3.37
				c0.55-1.39,0.82-2.89,0.82-4.5c0-2.12-0.48-3.76-1.43-4.92c-0.95-1.16-2.22-1.74-3.8-1.74c-1.76,0-3.08,0.65-3.99,1.96
				c-0.9,1.31-1.35,3.5-1.35,6.6v5.45l-12.84-1.32v-14.01h2.34v11.7l8.16,0.88v-3.29
				C1567.81,1337.18,1568.47,1334.48,1569.8,1332.79z"/>
			<path class="st9" d="M1568.54,1311.83c0.63-1.3,1.53-2.32,2.69-3.05c1.16-0.73,2.51-1.1,4.04-1.1c1.56,0,2.94,0.38,4.13,1.13
				c1.19,0.76,2.12,1.8,2.76,3.13c0.65,1.33,0.97,2.82,0.97,4.48c0,3.39-1.12,5.99-3.35,7.79c-2.23,1.8-5.38,2.7-9.45,2.7
				c-2.85,0-5.27-0.49-7.24-1.46c-1.97-0.97-3.47-2.34-4.48-4.1c-1.01-1.76-1.52-3.8-1.52-6.14c0-2.53,0.46-4.56,1.39-6.07
				l2.12,1.06c-0.8,1.22-1.21,2.88-1.21,4.97c0,2.83,0.9,5.05,2.69,6.66c1.79,1.61,4.4,2.41,7.81,2.41c0.61,0,1.3-0.04,2.08-0.11
				c-1.39-0.63-2.47-1.65-3.24-3.04c-0.77-1.39-1.15-2.99-1.15-4.79C1567.59,1314.63,1567.91,1313.14,1568.54,1311.83z
				 M1579.38,1312.01c-1.01-1.16-2.36-1.74-4.04-1.74c-1.68,0-3.02,0.58-4.02,1.74c-1,1.16-1.5,2.72-1.5,4.7
				c0,1.29,0.24,2.43,0.73,3.42c0.49,0.99,1.16,1.76,2.01,2.32c0.85,0.56,1.8,0.84,2.85,0.84c0.98,0,1.88-0.26,2.71-0.79
				c0.83-0.52,1.5-1.3,2.01-2.32c0.51-1.02,0.77-2.24,0.77-3.66C1580.9,1314.68,1580.4,1313.17,1579.38,1312.01z"/>
			<path class="st9" d="M1569.8,1289.81c1.33-1.69,3.19-2.54,5.58-2.54c1.49,0,2.82,0.35,3.99,1.04c1.17,0.7,2.09,1.74,2.76,3.13
				c0.67,1.39,1.01,3.1,1.01,5.12c0,1.83-0.3,3.57-0.9,5.21c-0.6,1.64-1.4,2.97-2.4,3.97l-2.08-1.28c0.88-0.85,1.59-1.98,2.14-3.37
				c0.55-1.39,0.82-2.89,0.82-4.5c0-2.12-0.48-3.76-1.43-4.92c-0.95-1.16-2.22-1.74-3.8-1.74c-1.76,0-3.08,0.65-3.99,1.96
				c-0.9,1.31-1.35,3.5-1.35,6.6v5.45l-12.84-1.32v-14.01h2.34v11.7l8.16,0.88v-3.29
				C1567.81,1294.21,1568.47,1291.51,1569.8,1289.81z"/>
			<path class="st9" d="M1557.31,1266.39h1.86l23.74,10.72v2.85l-23.26-10.53v13.17h4.79v2.6h-7.13V1266.39z"/>
		</g>
	</g>
</g>
</svg>
